<?xml version="1.0" encoding="UTF-8" standalone="no"?><svg xmlns="http://www.w3.org/2000/svg" xmlns:xlink="http://www.w3.org/1999/xlink" fill="#000000" height="430.5" preserveAspectRatio="xMidYMid meet" version="1" viewBox="0.0 -0.0 496.9 430.5" width="496.9" zoomAndPan="magnify"><defs><clipPath id="a"><path d="M 254 32 L 496.859375 32 L 496.859375 430.488281 L 254 430.488281 Z M 254 32"/></clipPath><clipPath id="b"><path d="M 0 32 L 243 32 L 243 430.488281 L 0 430.488281 Z M 0 32"/></clipPath></defs><g><g id="change1_1"><path d="M 248.433594 397.984375 C 248.03125 397.984375 247.664062 397.757812 247.507812 397.394531 L 37.683594 33.984375 C 37.40625 33.503906 37.570312 32.894531 38.046875 32.617188 C 38.527344 32.339844 39.136719 32.503906 39.414062 32.984375 L 248.429688 394.988281 L 457.445312 32.984375 C 457.71875 32.503906 458.332031 32.339844 458.808594 32.617188 C 459.289062 32.894531 459.453125 33.503906 459.175781 33.984375 L 249.316406 397.449219 C 249.144531 397.765625 248.804688 397.984375 248.433594 397.984375" fill="#f6e07d"/></g><g id="change1_2"><path d="M 465.539062 21.953125 C 465.367188 21.953125 465.195312 21.910156 465.039062 21.820312 C 464.5625 21.542969 464.398438 20.933594 464.671875 20.453125 L 475.332031 1.996094 L 21.527344 1.996094 L 32.183594 20.453125 C 32.460938 20.933594 32.296875 21.542969 31.820312 21.820312 C 31.339844 22.097656 30.730469 21.929688 30.453125 21.453125 L 18.925781 1.496094 C 18.75 1.1875 18.746094 0.804688 18.925781 0.496094 C 19.105469 0.1875 19.433594 -0.00390625 19.792969 -0.00390625 L 477.066406 -0.00390625 C 477.421875 -0.00390625 477.753906 0.1875 477.933594 0.496094 C 478.109375 0.804688 478.109375 1.1875 477.933594 1.496094 L 466.40625 21.453125 C 466.21875 21.773438 465.882812 21.953125 465.539062 21.953125" fill="#f6e07d"/></g><g id="change1_3"><path d="M 458.308594 34.484375 L 458.273438 34.484375 C 457.71875 34.484375 457.273438 34.035156 457.273438 33.484375 C 457.273438 32.929688 457.71875 32.484375 458.273438 32.484375 C 458.824219 32.484375 459.289062 32.929688 459.289062 33.484375 C 459.289062 34.035156 458.863281 34.484375 458.308594 34.484375" fill="#f6e07d"/></g><g clip-path="url(#a)" id="change1_6"><path d="M 267.222656 430.488281 C 266.863281 430.488281 266.535156 430.300781 266.355469 429.988281 L 254.816406 409.992188 C 254.539062 409.515625 254.703125 408.902344 255.183594 408.628906 C 255.660156 408.351562 256.273438 408.515625 256.550781 408.992188 L 267.222656 427.488281 L 494.125 34.484375 L 472.78125 34.484375 C 472.226562 34.484375 471.78125 34.035156 471.78125 33.484375 C 471.78125 32.929688 472.226562 32.484375 472.78125 32.484375 L 495.859375 32.484375 C 496.214844 32.484375 496.546875 32.671875 496.726562 32.984375 C 496.902344 33.292969 496.902344 33.671875 496.726562 33.984375 L 268.089844 429.988281 C 267.910156 430.300781 267.578125 430.488281 267.222656 430.488281" fill="#f6e07d"/></g><g id="change1_4"><path d="M 247.546875 397.414062 L 37.71875 33.984375 C 37.445312 33.503906 37.605469 32.894531 38.085938 32.617188 C 38.566406 32.339844 39.175781 32.503906 39.453125 32.984375 L 249.296875 396.441406 L 248.441406 396.964844 L 247.546875 397.414062" fill="#f6e07d"/></g><g id="change1_5"><path d="M 248.410156 397.949219 C 248.253906 397.949219 248.097656 397.914062 247.949219 397.835938 C 247.472656 397.578125 247.28125 397.003906 247.523438 396.519531 L 247.535156 396.492188 L 456.539062 34.484375 L 38.585938 34.484375 C 38.035156 34.484375 37.566406 34.035156 37.566406 33.484375 C 37.566406 32.929688 37.996094 32.484375 38.546875 32.484375 L 458.273438 32.484375 C 458.628906 32.484375 458.960938 32.671875 459.140625 32.984375 C 459.316406 33.292969 459.316406 33.671875 459.140625 33.984375 L 249.296875 397.441406 C 249.109375 397.765625 248.765625 397.949219 248.410156 397.949219" fill="#f6e07d"/></g><g clip-path="url(#b)" id="change1_7"><path d="M 229.636719 430.488281 C 229.277344 430.488281 228.949219 430.300781 228.769531 429.988281 L 0.132812 33.984375 C -0.0429688 33.671875 -0.0429688 33.292969 0.132812 32.984375 C 0.3125 32.671875 0.640625 32.484375 1 32.484375 L 24.078125 32.484375 C 24.628906 32.484375 25.078125 32.929688 25.078125 33.484375 C 25.078125 34.035156 24.628906 34.484375 24.078125 34.484375 L 2.730469 34.484375 L 229.636719 427.488281 L 240.308594 408.992188 C 240.585938 408.515625 241.195312 408.351562 241.675781 408.628906 C 242.152344 408.902344 242.316406 409.515625 242.039062 409.992188 L 230.503906 429.988281 C 230.324219 430.300781 229.992188 430.488281 229.636719 430.488281" fill="#f6e07d"/></g></g></svg>